<svg width="36" height="36" viewBox="0 0 36 36" fill="none" xmlns="http://www.w3.org/2000/svg">
<path d="M11.9801 16.2118C11.3841 15.6158 11.3841 14.6846 11.9801 14.0886C12.5761 13.4925 13.5073 13.4925 14.1034 14.0886C14.6994 14.6846 14.6994 15.6158 14.1034 16.2118C13.5073 16.8078 12.5388 16.8078 11.9801 16.2118ZM21.4782 20.1603C20.8822 20.7563 20.8822 21.6875 21.4782 22.2835C22.0743 22.8795 23.0055 22.8795 23.6015 22.2835C24.1975 21.6875 24.1975 20.7563 23.6015 20.1603C23.0426 19.6014 22.074 19.6014 21.4782 20.1603ZM0.954818 14.2751C0.172486 13.046 0.582236 11.7424 1.92319 11.2207C3.22699 10.6993 4.49334 10.215 5.79681 9.73093C6.05767 9.61921 6.16939 9.50749 6.16939 9.20948C6.20654 7.83139 6.28111 6.45309 6.39284 5.075C6.50456 3.58522 7.54744 2.87745 9.37271 3.28718C10.3039 3.54804 11.6077 3.8832 12.8741 4.25555C13.2092 4.36727 13.4327 4.2927 13.6564 3.99469C14.4758 2.95176 15.3325 1.90889 16.152 0.865957C17.0832 -0.288652 18.4986 -0.288652 19.4298 0.865957C20.2865 1.90889 21.1434 2.95176 22 4.03214C22.1863 4.25558 22.3351 4.33015 22.6332 4.25558C23.937 3.883 25.2779 3.5107 26.5813 3.17553C27.9968 2.80295 29.114 3.62243 29.1886 5.0751C29.2632 6.45319 29.3375 7.7941 29.412 9.17247C29.412 9.47048 29.5238 9.61936 29.7846 9.69392C31.051 10.1408 32.2802 10.6251 33.5466 11.1094C35.0363 11.668 35.4835 12.9718 34.6266 14.2756C33.9188 15.3931 33.174 16.5106 32.4291 17.6277C32.2428 17.8886 32.2428 18.0375 32.4291 18.298C33.2114 19.4155 33.9563 20.5702 34.7012 21.7248C35.4835 22.954 35.0738 24.2575 33.6954 24.8164C32.4291 25.3007 31.1627 25.7847 29.8961 26.269C29.6352 26.3808 29.4864 26.4925 29.4864 26.8276C29.4492 28.2057 29.3375 29.584 29.2629 30.9621C29.1884 32.3776 28.0338 33.1971 26.6557 32.8245C25.3147 32.4519 23.9738 32.1167 22.6329 31.7445C22.3721 31.6699 22.2232 31.7445 22.0743 31.9307C21.2177 33.0108 20.3608 34.054 19.5042 35.134C18.573 36.2887 17.1949 36.2887 16.2263 35.134C15.3697 34.0911 14.4757 33.0108 13.6562 31.9307C13.4699 31.7073 13.321 31.6699 13.0601 31.7445C11.7563 32.117 10.4529 32.4148 9.18651 32.8245C7.585 33.346 6.39294 32.1542 6.43012 30.8133C6.43012 29.5095 6.28125 28.1686 6.24383 26.8651C6.24383 26.5671 6.13211 26.4554 5.87125 26.3436C4.56745 25.8593 3.26398 25.3753 1.96018 24.8539C0.693833 24.3696 0.246662 23.0287 0.954433 21.9114C1.69932 20.7194 2.4442 19.5648 3.22654 18.373C3.41283 18.1121 3.41283 17.9261 3.22654 17.7027C2.445 16.5846 1.69985 15.43 0.954965 14.2754L0.954818 14.2751ZM22.5584 17.6273C20.5843 17.6273 18.9454 19.2288 18.9454 21.2403C18.9454 23.2144 20.5469 24.8533 22.5584 24.8533C24.5326 24.8533 26.1714 23.2518 26.1714 21.2403C26.1714 19.2291 24.5325 17.6273 22.5584 17.6273ZM12.3898 23.3633C12.0918 23.7359 12.129 24.2945 12.5016 24.5925C12.8741 24.8905 13.4327 24.8533 13.7307 24.4807L23.1916 13.083C23.4896 12.7104 23.4525 12.1518 23.0799 11.8538C22.7073 11.5558 22.1487 11.5929 21.8507 11.9655L12.3898 23.3633ZM9.40996 15.1316C9.40996 17.1428 11.0115 18.7446 13.023 18.7446C14.9971 18.7446 16.636 17.1431 16.636 15.1316C16.636 13.1574 15.0345 11.5186 13.023 11.5186C11.0489 11.5557 9.40996 13.1575 9.40996 15.1316Z" fill="white"/>
</svg>
