<svg width="22" height="17" viewBox="0 0 22 17" fill="none" xmlns="http://www.w3.org/2000/svg">
<g opacity="0.31">
<path d="M19.3401 0.5H19.0701H2.93006H2.66006C1.92471 0.583865 1.24632 0.936594 0.755297 1.49037C0.264278 2.04416 -0.00470452 2.7599 6.22877e-05 3.5V13.5C6.22877e-05 14.2956 0.316133 15.0587 0.878742 15.6213C1.44135 16.1839 2.20441 16.5 3.00006 16.5H19.0001C19.7957 16.5 20.5588 16.1839 21.1214 15.6213C21.684 15.0587 22.0001 14.2956 22.0001 13.5V3.5C22.0048 2.7599 21.7358 2.04416 21.2448 1.49037C20.7538 0.936594 20.0754 0.583865 19.3401 0.5ZM18.8801 2.5L12.0001 9.38C11.8127 9.56625 11.5592 9.67079 11.2951 9.67079C11.0309 9.67079 10.7774 9.56625 10.5901 9.38L3.71006 2.5H18.8801ZM20.0001 13.5C20.0001 13.7652 19.8947 14.0196 19.7072 14.2071C19.5196 14.3946 19.2653 14.5 19.0001 14.5H3.00006C2.73485 14.5 2.48049 14.3946 2.29296 14.2071C2.10542 14.0196 2.00006 13.7652 2.00006 13.5V3.91L8.88006 10.79C9.44256 11.3518 10.2051 11.6674 11.0001 11.6674C11.7951 11.6674 12.5576 11.3518 13.1201 10.79L20.0001 3.91V13.5Z" fill="black"/>
</g>
</svg>
