<svg width="18" height="13" viewBox="0 0 18 13" fill="none" xmlns="http://www.w3.org/2000/svg">
<path d="M15.7138 0H15.4944H2.38068H2.1613C1.56383 0.06814 1.01263 0.354732 0.613679 0.804679C0.214726 1.25463 -0.00382242 1.83617 5.06087e-05 2.4375V10.5625C5.06087e-05 11.209 0.256858 11.829 0.713978 12.2861C1.1711 12.7432 1.79109 13 2.43755 13H15.4376C16.084 13 16.704 12.7432 17.1611 12.2861C17.6182 11.829 17.8751 11.209 17.8751 10.5625V2.4375C17.8789 1.83617 17.6604 1.25463 17.2614 0.804679C16.8625 0.354732 16.3113 0.06814 15.7138 0ZM15.3401 1.625L9.75005 7.215C9.59782 7.36633 9.39189 7.45127 9.17724 7.45127C8.96259 7.45127 8.75666 7.36633 8.60443 7.215L3.01443 1.625H15.3401ZM16.2501 10.5625C16.2501 10.778 16.1644 10.9847 16.0121 11.137C15.8597 11.2894 15.653 11.375 15.4376 11.375H2.43755C2.22206 11.375 2.0154 11.2894 1.86303 11.137C1.71065 10.9847 1.62505 10.778 1.62505 10.5625V2.77062L7.21505 8.36063C7.67208 8.81709 8.29161 9.07348 8.93755 9.07348C9.58349 9.07348 10.203 8.81709 10.6601 8.36063L16.2501 2.77062V10.5625Z" fill="white"/>
</svg>
