<svg width="35" height="35" viewBox="0 0 35 35" fill="none" xmlns="http://www.w3.org/2000/svg">
<path d="M12.4569 15.1895L33.6278 23.7321" stroke="black"/>
<path d="M33.6275 20.0137L15.0565 12.5859" stroke="black"/>
<path d="M33.6285 16.3001L24.4237 12.5859" stroke="black"/>
<path d="M12.0858 18.8984L33.6281 27.8125" stroke="black"/>
<path d="M12.0858 22.6152L33.6281 31.5293" stroke="black"/>
<path d="M12.0858 26.3242L31.0282 34.124" stroke="black"/>
<path d="M12.0858 30.043L21.7427 34.0389" stroke="black"/>
<path d="M4.35355 8.43356C4.15829 8.23829 3.84171 8.23829 3.64645 8.43356L0.464466 11.6155C0.269204 11.8108 0.269204 12.1274 0.464466 12.3226C0.659728 12.5179 0.976311 12.5179 1.17157 12.3226L4 9.49422L6.82843 12.3226C7.02369 12.5179 7.34027 12.5179 7.53553 12.3226C7.7308 12.1274 7.7308 11.8108 7.53553 11.6155L4.35355 8.43356ZM3.64645 34.8542C3.84171 35.0495 4.15829 35.0495 4.35355 34.8542L7.53553 31.6723C7.7308 31.477 7.7308 31.1604 7.53553 30.9652C7.34027 30.7699 7.02369 30.7699 6.82843 30.9652L4 33.7936L1.17157 30.9652C0.976312 30.7699 0.659729 30.7699 0.464467 30.9652C0.269205 31.1604 0.269205 31.477 0.464467 31.6723L3.64645 34.8542ZM3.5 8.78711L3.5 34.5007L4.5 34.5007L4.5 8.78711L3.5 8.78711Z" fill="black"/>
<path d="M7.93356 4.14645C7.73829 4.34171 7.73829 4.65829 7.93356 4.85355L11.1155 8.03553C11.3108 8.2308 11.6274 8.2308 11.8226 8.03553C12.0179 7.84027 12.0179 7.52369 11.8226 7.32843L8.99422 4.5L11.8226 1.67157C12.0179 1.47631 12.0179 1.15973 11.8226 0.964466C11.6274 0.769204 11.3108 0.769204 11.1155 0.964466L7.93356 4.14645ZM34.3542 4.85355C34.5495 4.65829 34.5495 4.34171 34.3542 4.14645L31.1723 0.964466C30.977 0.769204 30.6604 0.769204 30.4652 0.964466C30.2699 1.15973 30.2699 1.47631 30.4652 1.67157L33.2936 4.5L30.4652 7.32843C30.2699 7.52369 30.2699 7.84027 30.4652 8.03553C30.6604 8.2308 30.977 8.2308 31.1723 8.03553L34.3542 4.85355ZM8.28711 5L34.0007 5V4L8.28711 4V5Z" fill="black"/>
<rect x="12.2148" y="12.7109" width="21.2851" height="21.2851" rx="2.5" stroke="black"/>
</svg>
