<svg width="33" height="33" viewBox="0 0 33 33" fill="none" xmlns="http://www.w3.org/2000/svg">
<mask id="path-1-inside-1_2_698" fill="white">
<path d="M31.2392 13.5014C32.0281 13.3409 32.8046 13.8503 32.8948 14.6503C33.2495 17.7952 32.6929 20.9872 31.2758 23.8398C29.6417 27.1291 26.9568 29.7792 23.6464 31.3701C20.336 32.9611 16.5894 33.402 13.0001 32.623C9.41084 31.844 6.18409 29.8897 3.83104 27.0696C1.47799 24.2495 0.13319 20.7248 0.00966888 17.0541C-0.113852 13.3833 0.990972 9.77625 3.14912 6.80435C5.30727 3.83244 8.39535 1.6656 11.9241 0.647086C14.9845 -0.236216 18.2245 -0.212046 21.255 0.700164C22.0259 0.932219 22.388 1.78735 22.0889 2.53478C21.7897 3.28221 20.9425 3.63739 20.1674 3.42C17.744 2.74037 15.1691 2.74495 12.7326 3.4482C9.82738 4.28674 7.28497 6.07069 5.50817 8.51745C3.73138 10.9642 2.82178 13.9339 2.92347 16.956C3.02517 19.9782 4.13234 22.88 6.0696 25.2017C8.00686 27.5235 10.6634 29.1325 13.6185 29.7739C16.5735 30.4152 19.6581 30.0522 22.3835 28.7424C25.109 27.4326 27.3194 25.2508 28.6648 22.5427C29.7931 20.2716 30.2587 17.7392 30.0242 15.2333C29.9491 14.4317 30.4503 13.6618 31.2392 13.5014Z"/>
</mask>
<path d="M31.2392 13.5014C32.0281 13.3409 32.8046 13.8503 32.8948 14.6503C33.2495 17.7952 32.6929 20.9872 31.2758 23.8398C29.6417 27.1291 26.9568 29.7792 23.6464 31.3701C20.336 32.9611 16.5894 33.402 13.0001 32.623C9.41084 31.844 6.18409 29.8897 3.83104 27.0696C1.47799 24.2495 0.13319 20.7248 0.00966888 17.0541C-0.113852 13.3833 0.990972 9.77625 3.14912 6.80435C5.30727 3.83244 8.39535 1.6656 11.9241 0.647086C14.9845 -0.236216 18.2245 -0.212046 21.255 0.700164C22.0259 0.932219 22.388 1.78735 22.0889 2.53478C21.7897 3.28221 20.9425 3.63739 20.1674 3.42C17.744 2.74037 15.1691 2.74495 12.7326 3.4482C9.82738 4.28674 7.28497 6.07069 5.50817 8.51745C3.73138 10.9642 2.82178 13.9339 2.92347 16.956C3.02517 19.9782 4.13234 22.88 6.0696 25.2017C8.00686 27.5235 10.6634 29.1325 13.6185 29.7739C16.5735 30.4152 19.6581 30.0522 22.3835 28.7424C25.109 27.4326 27.3194 25.2508 28.6648 22.5427C29.7931 20.2716 30.2587 17.7392 30.0242 15.2333C29.9491 14.4317 30.4503 13.6618 31.2392 13.5014Z" stroke="black" stroke-width="2" mask="url(#path-1-inside-1_2_698)"/>
<path d="M1.85817 20.302C1.12434 20.4925 0.678437 21.2445 0.929269 21.9599C2.1816 25.5321 4.63085 28.58 7.88269 30.5713C11.5263 32.8026 15.8934 33.5334 20.0649 32.6101C24.2365 31.6867 27.8872 29.1812 30.2488 25.6207C32.3565 22.443 33.2907 18.6462 32.9185 14.8792C32.844 14.1247 32.1224 13.6312 31.3767 13.7682C30.631 13.9051 30.1448 14.6209 30.2068 15.3765C30.4583 18.4417 29.6753 21.5181 27.9608 24.1031C25.9922 27.0711 22.9489 29.1597 19.4716 29.9294C15.9942 30.6991 12.3538 30.0899 9.31652 28.2299C6.67126 26.61 4.6631 24.1514 3.59754 21.2664C3.33486 20.5552 2.59201 20.1115 1.85817 20.302Z" fill="black"/>
<path d="M18.1943 21.0573L16.2168 17.6493H14.7443V21.0573H12.8089V11.2402H16.7357C17.6426 11.2402 18.414 11.5581 19.0497 12.1939C19.6855 12.8297 20.0034 13.5963 20.0034 14.4939C20.0034 15.1016 19.8304 15.6672 19.4845 16.1908C19.1386 16.705 18.6804 17.093 18.1101 17.3548L20.2839 21.0573H18.1943ZM14.7443 13.0494V15.9524H16.7357C17.1004 15.9524 17.4136 15.8122 17.6754 15.5317C17.9372 15.2418 18.068 14.8959 18.068 14.4939C18.068 14.0918 17.9372 13.7506 17.6754 13.4701C17.4136 13.1896 17.1004 13.0494 16.7357 13.0494H14.7443Z" fill="black"/>
</svg>
