<svg width="18" height="18" viewBox="0 0 18 18" fill="none" xmlns="http://www.w3.org/2000/svg">
<path d="M5.71814 12.2213C3.04057 9.58137 1.46368 6.77012 0.665577 5.05817C0.207452 4.07548 0.451954 2.94043 1.23244 2.18783C2.28482 1.17306 3.72333 -0.0783356 4.34142 0.00384438C6.0501 0.231027 8.32918 3.11938 8.00929 4.08656C7.6894 5.05375 6.3992 6.34683 6.3992 6.34683C6.3992 6.34683 7.12852 7.69454 8.68802 9.24478C10.2475 10.795 11.6025 11.477 11.6025 11.477C11.6025 11.477 12.8927 10.1839 13.863 9.85799C14.8333 9.53208 18 12.1773 18 13.4705C18 14.0609 16.9462 15.455 16.0426 16.5418C15.2892 17.4479 14.0524 17.7576 12.9863 17.2555C11.2005 16.4145 8.34801 14.8143 5.71814 12.2213Z" fill="white"/>
</svg>
