<svg width="193" height="71" viewBox="0 0 193 71" fill="none" xmlns="http://www.w3.org/2000/svg">
<circle cx="9.5" cy="9.5" r="9.5" fill="#1FBBEA"/>
<circle cx="38.5" cy="9.5" r="9.5" fill="#8F8F8F"/>
<circle cx="67.5" cy="9.5" r="9.5" fill="#FFBE4C"/>
<path d="M17.1976 31.732V48H14.525V36.4032L9.57488 44.5837H9.24952L4.2994 36.38V48H1.6268V31.732H4.50856L9.4122 39.866L14.3391 31.732H17.1976ZM25.4378 45.4436H32.6422V48H22.7652V31.732H32.526V34.2884H25.4378V38.5181H31.945V41.0512H25.4378V45.4436ZM53.103 39.5871V40.7026C53.103 42.9337 52.3671 44.7619 50.8952 46.1873C49.4234 47.5972 47.5022 48.3021 45.1317 48.3021C42.6218 48.3021 40.5457 47.4887 38.9034 45.8619C37.2766 44.2351 36.4632 42.2365 36.4632 39.866C36.4632 37.511 37.2766 35.5201 38.9034 33.8933C40.5457 32.251 42.5753 31.4299 44.9923 31.4299C46.5106 31.4299 47.8973 31.7785 49.1522 32.4757C50.4072 33.1729 51.3833 34.1102 52.0805 35.2877L49.7797 36.6124C49.3459 35.8377 48.7029 35.218 47.8508 34.7532C46.9987 34.2729 46.0458 34.0328 44.9923 34.0328C43.288 34.0328 41.8859 34.5905 40.7858 35.706C39.6858 36.8216 39.1358 38.216 39.1358 39.8892C39.1358 41.5625 39.6858 42.9492 40.7858 44.0492C41.9014 45.1492 43.3577 45.6992 45.155 45.6992C46.5958 45.6992 47.7656 45.3661 48.6642 44.6999C49.5783 44.0182 50.1593 43.1119 50.4072 41.9808H44.969V39.5871H53.103ZM67.855 48L66.7162 44.7232H59.7907L58.6519 48H55.7469L61.6499 31.732H64.857L70.7367 48H67.855ZM60.6738 42.2132H65.8331L63.2535 34.8694L60.6738 42.2132ZM79.8165 48.3021C78.2517 48.3021 76.9193 47.9458 75.8192 47.2331C74.7347 46.5204 73.9755 45.5443 73.5417 44.3048L75.8425 42.9569C76.4932 44.7851 77.8411 45.6992 79.8862 45.6992C80.8933 45.6992 81.6447 45.5056 82.1405 45.1182C82.6518 44.7154 82.9074 44.1964 82.9074 43.5612C82.9074 42.8949 82.6363 42.3914 82.094 42.0506C81.5518 41.6942 80.5912 41.3069 79.2123 40.8886C78.4376 40.6562 77.8101 40.4393 77.3298 40.2378C76.8495 40.0364 76.3383 39.7575 75.796 39.4012C75.2692 39.0294 74.8741 38.5723 74.6107 38.03C74.3474 37.4878 74.2157 36.8525 74.2157 36.1244C74.2157 34.6835 74.7269 33.5447 75.7495 32.7081C76.7721 31.8559 78.0038 31.4299 79.4447 31.4299C80.7461 31.4299 81.8849 31.7475 82.8609 32.3827C83.837 33.0179 84.5885 33.8933 85.1152 35.0088L82.8609 36.3103C82.1792 34.7919 81.0405 34.0328 79.4447 34.0328C78.67 34.0328 78.0503 34.2187 77.5855 34.5905C77.1207 34.9469 76.8883 35.4349 76.8883 36.0546C76.8883 36.6589 77.1207 37.1392 77.5855 37.4955C78.0658 37.8364 78.9256 38.2005 80.1651 38.5878C80.7848 38.7892 81.2341 38.9441 81.513 39.0526C81.8074 39.1456 82.2102 39.3005 82.7215 39.5174C83.2483 39.7343 83.6434 39.9512 83.9067 40.1681C84.1701 40.385 84.449 40.6562 84.7434 40.9815C85.0533 41.3069 85.2702 41.6787 85.3941 42.097C85.5181 42.5154 85.58 42.9879 85.58 43.5147C85.58 44.9865 85.0455 46.1563 83.9765 47.0239C82.9229 47.8761 81.5363 48.3021 79.8165 48.3021ZM100.191 31.732V34.2884H95.6124V48H92.9398V34.2884H88.3383V31.732H100.191ZM107.164 45.4436H114.368V48H104.491V31.732H114.252V34.2884H107.164V38.5181H113.671V41.0512H107.164V45.4436ZM131.409 48H128.225L121.811 40.2611V48H119.139V31.732H121.811V39.0294L127.993 31.732H131.177L124.6 39.6568L131.409 48ZM133.832 42.1435V39.7266H142.43V42.1435H133.832ZM153.19 48.3021C151.626 48.3021 150.293 47.9458 149.193 47.2331C148.109 46.5204 147.349 45.5443 146.916 44.3048L149.216 42.9569C149.867 44.7851 151.215 45.6992 153.26 45.6992C154.267 45.6992 155.019 45.5056 155.514 45.1182C156.026 44.7154 156.281 44.1964 156.281 43.5612C156.281 42.8949 156.01 42.3914 155.468 42.0506C154.926 41.6942 153.965 41.3069 152.586 40.8886C151.812 40.6562 151.184 40.4393 150.704 40.2378C150.223 40.0364 149.712 39.7575 149.17 39.4012C148.643 39.0294 148.248 38.5723 147.985 38.03C147.721 37.4878 147.59 36.8525 147.59 36.1244C147.59 34.6835 148.101 33.5447 149.123 32.7081C150.146 31.8559 151.378 31.4299 152.819 31.4299C154.12 31.4299 155.259 31.7475 156.235 32.3827C157.211 33.0179 157.962 33.8933 158.489 35.0088L156.235 36.3103C155.553 34.7919 154.414 34.0328 152.819 34.0328C152.044 34.0328 151.424 34.2187 150.959 34.5905C150.495 34.9469 150.262 35.4349 150.262 36.0546C150.262 36.6589 150.495 37.1392 150.959 37.4955C151.44 37.8364 152.3 38.2005 153.539 38.5878C154.159 38.7892 154.608 38.9441 154.887 39.0526C155.181 39.1456 155.584 39.3005 156.095 39.5174C156.622 39.7343 157.017 39.9512 157.281 40.1681C157.544 40.385 157.823 40.6562 158.117 40.9815C158.427 41.3069 158.644 41.6787 158.768 42.097C158.892 42.5154 158.954 42.9879 158.954 43.5147C158.954 44.9865 158.419 46.1563 157.35 47.0239C156.297 47.8761 154.91 48.3021 153.19 48.3021ZM169.463 31.732C170.997 31.732 172.275 32.2433 173.298 33.2658C174.336 34.2884 174.855 35.5589 174.855 37.0772C174.855 38.5801 174.336 39.8505 173.298 40.8886C172.275 41.9111 170.997 42.4224 169.463 42.4224H166.14V48H163.467V31.732H169.463ZM169.463 39.9125C170.253 39.9125 170.904 39.6491 171.415 39.1223C171.926 38.5801 172.182 37.8983 172.182 37.0772C172.182 36.2561 171.926 35.5821 171.415 35.0553C170.904 34.5131 170.253 34.2419 169.463 34.2419H166.14V39.9125H169.463ZM189.074 39.5639C189.787 39.9357 190.344 40.447 190.747 41.0977C191.15 41.7484 191.351 42.4999 191.351 43.352C191.351 44.6844 190.879 45.7922 189.934 46.6753C188.989 47.5584 187.834 48 186.471 48H179.499V31.732H185.96C187.292 31.732 188.415 32.1658 189.33 33.0334C190.259 33.8856 190.724 34.9546 190.724 36.2406C190.724 37.6505 190.174 38.7582 189.074 39.5639ZM185.96 34.2419H182.172V38.5181H185.96C186.549 38.5181 187.044 38.3167 187.447 37.9138C187.85 37.4955 188.051 36.9842 188.051 36.38C188.051 35.7758 187.85 35.2722 187.447 34.8694C187.044 34.4511 186.549 34.2419 185.96 34.2419ZM186.471 45.4901C187.091 45.4901 187.61 45.2732 188.028 44.8394C188.462 44.3901 188.679 43.8478 188.679 43.2126C188.679 42.5773 188.462 42.0428 188.028 41.609C187.61 41.1597 187.091 40.935 186.471 40.935H182.172V45.4901H186.471Z" fill="white"/>
<path d="M8.25 64.183V64.645C8.25 65.6497 7.90533 66.4857 7.216 67.153C6.52667 67.813 5.61367 68.143 4.477 68.143C3.30367 68.143 2.332 67.758 1.562 66.988C0.799333 66.2107 0.418 65.2647 0.418 64.15C0.418 63.0353 0.799333 62.093 1.562 61.323C2.332 60.5457 3.29633 60.157 4.455 60.157C5.16633 60.157 5.819 60.3293 6.413 60.674C7.007 61.0113 7.46533 61.4587 7.788 62.016L6.908 62.533C6.688 62.115 6.35433 61.7813 5.907 61.532C5.467 61.2753 4.97933 61.147 4.444 61.147C3.564 61.147 2.84167 61.4367 2.277 62.016C1.71233 62.588 1.43 63.2993 1.43 64.15C1.43 65.0007 1.71233 65.712 2.277 66.284C2.849 66.856 3.586 67.142 4.488 67.142C5.258 67.142 5.88133 66.955 6.358 66.581C6.83467 66.1997 7.12433 65.7083 7.227 65.107H4.4V64.183H8.25ZM12.7169 67.032H16.0389V68H11.6939V60.3H12.7169V67.032ZM24.5509 68L23.9239 66.273H20.4589L19.8319 68H18.7429L21.6139 60.3H22.7689L25.6399 68H24.5509ZM20.8109 65.316H23.5719L22.1859 61.521L20.8109 65.316ZM31.0301 68.143C30.3115 68.143 29.6955 67.9743 29.1821 67.637C28.6761 67.2997 28.3205 66.8377 28.1151 66.251L28.9951 65.745C29.2958 66.6763 29.9815 67.142 31.0521 67.142C31.5801 67.142 31.9835 67.0357 32.2621 66.823C32.5408 66.603 32.6801 66.3133 32.6801 65.954C32.6801 65.5873 32.5408 65.3123 32.2621 65.129C31.9835 64.9457 31.5178 64.7513 30.8651 64.546C30.5425 64.4433 30.2968 64.3627 30.1281 64.304C29.9595 64.238 29.7468 64.1427 29.4901 64.018C29.2408 63.886 29.0538 63.754 28.9291 63.622C28.8045 63.4827 28.6908 63.303 28.5881 63.083C28.4928 62.863 28.4451 62.6137 28.4451 62.335C28.4451 61.6677 28.6798 61.1397 29.1491 60.751C29.6185 60.355 30.1905 60.157 30.8651 60.157C31.4738 60.157 32.0018 60.311 32.4491 60.619C32.9038 60.927 33.2448 61.334 33.4721 61.84L32.6141 62.335C32.2841 61.543 31.7011 61.147 30.8651 61.147C30.4471 61.147 30.1098 61.2497 29.8531 61.455C29.5965 61.6603 29.4681 61.939 29.4681 62.291C29.4681 62.6283 29.5891 62.885 29.8311 63.061C30.0731 63.237 30.4911 63.4203 31.0851 63.611C31.2978 63.677 31.4481 63.7247 31.5361 63.754C31.6241 63.7833 31.7598 63.8347 31.9431 63.908C32.1338 63.9813 32.2731 64.04 32.3611 64.084C32.4491 64.128 32.5665 64.1903 32.7131 64.271C32.8671 64.3517 32.9808 64.4287 33.0541 64.502C33.1275 64.5753 33.2118 64.667 33.3071 64.777C33.4098 64.8797 33.4831 64.986 33.5271 65.096C33.5711 65.206 33.6078 65.3343 33.6371 65.481C33.6738 65.6203 33.6921 65.7707 33.6921 65.932C33.6921 66.6067 33.4465 67.1457 32.9551 67.549C32.4638 67.945 31.8221 68.143 31.0301 68.143ZM39.321 68.143C38.6023 68.143 37.9863 67.9743 37.473 67.637C36.967 67.2997 36.6113 66.8377 36.406 66.251L37.286 65.745C37.5866 66.6763 38.2723 67.142 39.343 67.142C39.871 67.142 40.2743 67.0357 40.553 66.823C40.8316 66.603 40.971 66.3133 40.971 65.954C40.971 65.5873 40.8316 65.3123 40.553 65.129C40.2743 64.9457 39.8086 64.7513 39.156 64.546C38.8333 64.4433 38.5876 64.3627 38.419 64.304C38.2503 64.238 38.0376 64.1427 37.781 64.018C37.5316 63.886 37.3446 63.754 37.22 63.622C37.0953 63.4827 36.9816 63.303 36.879 63.083C36.7836 62.863 36.736 62.6137 36.736 62.335C36.736 61.6677 36.9706 61.1397 37.44 60.751C37.9093 60.355 38.4813 60.157 39.156 60.157C39.7646 60.157 40.2926 60.311 40.74 60.619C41.1946 60.927 41.5356 61.334 41.763 61.84L40.905 62.335C40.575 61.543 39.992 61.147 39.156 61.147C38.738 61.147 38.4006 61.2497 38.144 61.455C37.8873 61.6603 37.759 61.939 37.759 62.291C37.759 62.6283 37.88 62.885 38.122 63.061C38.364 63.237 38.782 63.4203 39.376 63.611C39.5886 63.677 39.739 63.7247 39.827 63.754C39.915 63.7833 40.0506 63.8347 40.234 63.908C40.4246 63.9813 40.564 64.04 40.652 64.084C40.74 64.128 40.8573 64.1903 41.004 64.271C41.158 64.3517 41.2716 64.4287 41.345 64.502C41.4183 64.5753 41.5026 64.667 41.598 64.777C41.7006 64.8797 41.774 64.986 41.818 65.096C41.862 65.206 41.8986 65.3343 41.928 65.481C41.9646 65.6203 41.983 65.7707 41.983 65.932C41.983 66.6067 41.7373 67.1457 41.246 67.549C40.7546 67.945 40.113 68.143 39.321 68.143ZM55.4153 68L54.7883 66.273H51.3233L50.6963 68H49.6073L52.4783 60.3H53.6333L56.5043 68H55.4153ZM51.6753 65.316H54.4363L53.0503 61.521L51.6753 65.316ZM61.8946 68.143C61.1759 68.143 60.5599 67.9743 60.0466 67.637C59.5406 67.2997 59.1849 66.8377 58.9796 66.251L59.8596 65.745C60.1603 66.6763 60.8459 67.142 61.9166 67.142C62.4446 67.142 62.8479 67.0357 63.1266 66.823C63.4053 66.603 63.5446 66.3133 63.5446 65.954C63.5446 65.5873 63.4053 65.3123 63.1266 65.129C62.8479 64.9457 62.3823 64.7513 61.7296 64.546C61.4069 64.4433 61.1613 64.3627 60.9926 64.304C60.8239 64.238 60.6113 64.1427 60.3546 64.018C60.1053 63.886 59.9183 63.754 59.7936 63.622C59.6689 63.4827 59.5553 63.303 59.4526 63.083C59.3573 62.863 59.3096 62.6137 59.3096 62.335C59.3096 61.6677 59.5443 61.1397 60.0136 60.751C60.4829 60.355 61.0549 60.157 61.7296 60.157C62.3383 60.157 62.8663 60.311 63.3136 60.619C63.7683 60.927 64.1093 61.334 64.3366 61.84L63.4786 62.335C63.1486 61.543 62.5656 61.147 61.7296 61.147C61.3116 61.147 60.9743 61.2497 60.7176 61.455C60.4609 61.6603 60.3326 61.939 60.3326 62.291C60.3326 62.6283 60.4536 62.885 60.6956 63.061C60.9376 63.237 61.3556 63.4203 61.9496 63.611C62.1623 63.677 62.3126 63.7247 62.4006 63.754C62.4886 63.7833 62.6243 63.8347 62.8076 63.908C62.9983 63.9813 63.1376 64.04 63.2256 64.084C63.3136 64.128 63.4309 64.1903 63.5776 64.271C63.7316 64.3517 63.8453 64.4287 63.9186 64.502C63.9919 64.5753 64.0763 64.667 64.1716 64.777C64.2743 64.8797 64.3476 64.986 64.3916 65.096C64.4356 65.206 64.4723 65.3343 64.5016 65.481C64.5383 65.6203 64.5566 65.7707 64.5566 65.932C64.5566 66.6067 64.3109 67.1457 63.8196 67.549C63.3283 67.945 62.6866 68.143 61.8946 68.143ZM70.1854 68.143C69.4667 68.143 68.8507 67.9743 68.3374 67.637C67.8314 67.2997 67.4757 66.8377 67.2704 66.251L68.1504 65.745C68.4511 66.6763 69.1367 67.142 70.2074 67.142C70.7354 67.142 71.1387 67.0357 71.4174 66.823C71.6961 66.603 71.8354 66.3133 71.8354 65.954C71.8354 65.5873 71.6961 65.3123 71.4174 65.129C71.1387 64.9457 70.6731 64.7513 70.0204 64.546C69.6977 64.4433 69.4521 64.3627 69.2834 64.304C69.1147 64.238 68.9021 64.1427 68.6454 64.018C68.3961 63.886 68.2091 63.754 68.0844 63.622C67.9597 63.4827 67.8461 63.303 67.7434 63.083C67.6481 62.863 67.6004 62.6137 67.6004 62.335C67.6004 61.6677 67.8351 61.1397 68.3044 60.751C68.7737 60.355 69.3457 60.157 70.0204 60.157C70.6291 60.157 71.1571 60.311 71.6044 60.619C72.0591 60.927 72.4001 61.334 72.6274 61.84L71.7694 62.335C71.4394 61.543 70.8564 61.147 70.0204 61.147C69.6024 61.147 69.2651 61.2497 69.0084 61.455C68.7517 61.6603 68.6234 61.939 68.6234 62.291C68.6234 62.6283 68.7444 62.885 68.9864 63.061C69.2284 63.237 69.6464 63.4203 70.2404 63.611C70.4531 63.677 70.6034 63.7247 70.6914 63.754C70.7794 63.7833 70.9151 63.8347 71.0984 63.908C71.2891 63.9813 71.4284 64.04 71.5164 64.084C71.6044 64.128 71.7217 64.1903 71.8684 64.271C72.0224 64.3517 72.1361 64.4287 72.2094 64.502C72.2827 64.5753 72.3671 64.667 72.4624 64.777C72.5651 64.8797 72.6384 64.986 72.6824 65.096C72.7264 65.206 72.7631 65.3343 72.7924 65.481C72.8291 65.6203 72.8474 65.7707 72.8474 65.932C72.8474 66.6067 72.6017 67.1457 72.1104 67.549C71.6191 67.945 70.9774 68.143 70.1854 68.143ZM77.2281 67.032H80.8031V68H76.2051V60.3H80.7481V61.268H77.2281V63.633H80.4731V64.59H77.2281V67.032ZM91.4431 60.3V68H90.4311V61.983L87.9121 66.174H87.7801L85.2611 61.994V68H84.2381V60.3H85.3931L87.8461 64.37L90.2881 60.3H91.4431ZM99.6896 64.007C100.042 64.1757 100.32 64.4177 100.526 64.733C100.738 65.0483 100.845 65.4113 100.845 65.822C100.845 66.438 100.628 66.955 100.196 67.373C99.763 67.791 99.235 68 98.6116 68H95.2896V60.3H98.3696C98.971 60.3 99.4806 60.5017 99.8986 60.905C100.317 61.3083 100.526 61.807 100.526 62.401C100.526 63.083 100.247 63.6183 99.6896 64.007ZM98.3696 61.257H96.3126V63.611H98.3696C98.6923 63.611 98.9636 63.4973 99.1836 63.27C99.4036 63.0427 99.5136 62.764 99.5136 62.434C99.5136 62.1113 99.4 61.8363 99.1726 61.609C98.9526 61.3743 98.685 61.257 98.3696 61.257ZM98.6116 67.043C98.9563 67.043 99.246 66.922 99.4806 66.68C99.7153 66.438 99.8326 66.141 99.8326 65.789C99.8326 65.4443 99.7116 65.151 99.4696 64.909C99.235 64.667 98.949 64.546 98.6116 64.546H96.3126V67.043H98.6116ZM105.28 67.032H108.602V68H104.257V60.3H105.28V67.032ZM116.56 60.3L113.832 64.887V68H112.809V64.876L110.092 60.3H111.236L113.326 63.908L115.416 60.3H116.56Z" fill="white"/>
</svg>
