<svg width="89" height="11" viewBox="0 0 89 11" fill="none" xmlns="http://www.w3.org/2000/svg">
<g opacity="0.6">
<mask id="path-1-inside-1_2_1235" fill="white">
<path fill-rule="evenodd" clip-rule="evenodd" d="M5.96439 4.63973L4.55942 8.38209L1.617 0.0655547H0L3.88345 10.2462H5.15584L6.91868 5.68645L8.66827 10.2462H9.94066L13.8241 0.0655547H12.1935L9.26469 8.38209L7.85972 4.63973L9.46346 0.108582H8.07185L6.90543 3.56431L5.75226 0.108582H4.34794L5.96439 4.63973ZM32.5058 5.96597C32.1873 5.50842 31.7374 5.17813 31.2267 5.02688C31.6475 4.82842 31.9982 4.48916 32.2275 4.05899C32.4584 3.63554 32.5796 3.15256 32.5781 2.66091C32.5773 2.34072 32.5257 2.02305 32.4257 1.7217C32.3283 1.41934 32.1825 1.13786 31.995 0.89013C31.8082 0.64534 31.5785 0.443074 31.319 0.295052C31.0454 0.139961 30.7403 0.0610854 30.4314 0.0655547H25.5804V10.2462H30.0737C30.4554 10.2488 30.8353 10.1883 31.2002 10.0669C31.5343 9.95841 31.8467 9.78332 32.1214 9.55067C32.3812 9.32726 32.5936 9.0461 32.7443 8.72622C32.9027 8.38375 32.9823 8.00499 32.9763 7.62212C32.9926 7.02903 32.8272 6.44676 32.5058 5.96597ZM31.3461 7.9161C31.2785 8.09723 31.1795 8.26272 31.0545 8.40366C30.9297 8.5431 30.7812 8.65509 30.617 8.73345C30.446 8.81542 30.2607 8.85697 30.0737 8.85531H27.065V5.74382H30.1665C30.3457 5.74223 30.5228 5.78642 30.6833 5.87279C30.8387 5.95574 30.9764 6.07282 31.0876 6.21657C31.2015 6.36648 31.2911 6.53618 31.3526 6.71847C31.4192 6.91105 31.4529 7.11508 31.4521 7.32067C31.4532 7.52475 31.4172 7.72708 31.3461 7.9161ZM29.8748 1.45652C30.0405 1.45229 30.205 1.48806 30.3563 1.56122C30.5077 1.63438 30.642 1.7431 30.7496 1.87948C30.9858 2.1809 31.1088 2.56721 31.0943 2.962C31.0966 3.16776 31.0629 3.37214 30.9949 3.56431C30.9328 3.73884 30.838 3.89755 30.7164 4.03042C30.5977 4.15898 30.4586 4.26338 30.3056 4.33863C30.1452 4.41643 29.9711 4.45554 29.7953 4.45326H27.065V1.45652H29.8748ZM45.2633 10.2462V0.0655547H43.6723L40.5576 6.289L37.4428 0.0655547H35.8523V10.2462H37.3367V2.91897L40.1467 8.46815H40.9685L43.7652 2.91897V10.2462H45.2633ZM61.3671 10.2462C62.0148 10.2561 62.6582 10.132 63.2628 9.88046C63.807 9.65198 64.2996 9.29994 64.7074 8.84807C65.1142 8.38774 65.4279 7.84084 65.6286 7.24219C65.8526 6.56874 65.9626 5.85715 65.9534 5.14151C65.9574 4.47141 65.8589 3.80522 65.6618 3.16992C65.4781 2.57332 65.1826 2.02415 64.7936 1.55681C64.3943 1.08663 63.9061 0.714958 63.3622 0.467055C62.7299 0.186591 62.0511 0.0499217 61.3679 0.0655547H58.0265V10.2462H61.3666H61.3671ZM64.2433 6.60408C64.1212 7.03253 63.9206 7.42997 63.6534 7.77266C63.3885 8.10587 63.0579 8.37049 62.6859 8.54698C62.2696 8.74036 61.8201 8.83569 61.3671 8.82662H59.5109V1.48509H61.3666C61.8124 1.47667 62.2549 1.56955 62.6655 1.75774C63.0342 1.93069 63.3641 2.18741 63.633 2.51048C63.9058 2.84583 64.111 3.23891 64.2357 3.66472C64.3766 4.142 64.446 4.64062 64.4411 5.14163C64.4454 5.63729 64.3784 6.13065 64.2427 6.60408H64.2433ZM70.3268 10.2462V0.0655547H68.8418V10.2462H70.3262H70.3268ZM72.8051 10.2462H74.3818L75.3626 7.4788H78.9943L79.9883 10.2462H81.5524L77.8412 0.0655547H76.5423L72.8051 10.2462ZM75.6283 6.28864L77.1923 1.91528L78.7032 6.28864H75.6278H75.6283ZM16.1821 0H22.7566V1.4225H16.1821V0ZM16.1821 4.38604H21.9895V5.80855H16.1821V4.38604ZM16.1821 8.77209H22.7566V10.1946H16.1821V8.77209ZM48.7259 0H55.3004V1.4225H48.7259V0ZM48.7259 4.38604H54.5334V5.80855H48.7259V4.38604ZM48.7259 8.77209H55.3004V10.1946H48.7259V8.77209Z"/>
</mask>
<path fill-rule="evenodd" clip-rule="evenodd" d="M5.96439 4.63973L4.55942 8.38209L1.617 0.0655547H0L3.88345 10.2462H5.15584L6.91868 5.68645L8.66827 10.2462H9.94066L13.8241 0.0655547H12.1935L9.26469 8.38209L7.85972 4.63973L9.46346 0.108582H8.07185L6.90543 3.56431L5.75226 0.108582H4.34794L5.96439 4.63973ZM32.5058 5.96597C32.1873 5.50842 31.7374 5.17813 31.2267 5.02688C31.6475 4.82842 31.9982 4.48916 32.2275 4.05899C32.4584 3.63554 32.5796 3.15256 32.5781 2.66091C32.5773 2.34072 32.5257 2.02305 32.4257 1.7217C32.3283 1.41934 32.1825 1.13786 31.995 0.89013C31.8082 0.64534 31.5785 0.443074 31.319 0.295052C31.0454 0.139961 30.7403 0.0610854 30.4314 0.0655547H25.5804V10.2462H30.0737C30.4554 10.2488 30.8353 10.1883 31.2002 10.0669C31.5343 9.95841 31.8467 9.78332 32.1214 9.55067C32.3812 9.32726 32.5936 9.0461 32.7443 8.72622C32.9027 8.38375 32.9823 8.00499 32.9763 7.62212C32.9926 7.02903 32.8272 6.44676 32.5058 5.96597ZM31.3461 7.9161C31.2785 8.09723 31.1795 8.26272 31.0545 8.40366C30.9297 8.5431 30.7812 8.65509 30.617 8.73345C30.446 8.81542 30.2607 8.85697 30.0737 8.85531H27.065V5.74382H30.1665C30.3457 5.74223 30.5228 5.78642 30.6833 5.87279C30.8387 5.95574 30.9764 6.07282 31.0876 6.21657C31.2015 6.36648 31.2911 6.53618 31.3526 6.71847C31.4192 6.91105 31.4529 7.11508 31.4521 7.32067C31.4532 7.52475 31.4172 7.72708 31.3461 7.9161ZM29.8748 1.45652C30.0405 1.45229 30.205 1.48806 30.3563 1.56122C30.5077 1.63438 30.642 1.7431 30.7496 1.87948C30.9858 2.1809 31.1088 2.56721 31.0943 2.962C31.0966 3.16776 31.0629 3.37214 30.9949 3.56431C30.9328 3.73884 30.838 3.89755 30.7164 4.03042C30.5977 4.15898 30.4586 4.26338 30.3056 4.33863C30.1452 4.41643 29.9711 4.45554 29.7953 4.45326H27.065V1.45652H29.8748ZM45.2633 10.2462V0.0655547H43.6723L40.5576 6.289L37.4428 0.0655547H35.8523V10.2462H37.3367V2.91897L40.1467 8.46815H40.9685L43.7652 2.91897V10.2462H45.2633ZM61.3671 10.2462C62.0148 10.2561 62.6582 10.132 63.2628 9.88046C63.807 9.65198 64.2996 9.29994 64.7074 8.84807C65.1142 8.38774 65.4279 7.84084 65.6286 7.24219C65.8526 6.56874 65.9626 5.85715 65.9534 5.14151C65.9574 4.47141 65.8589 3.80522 65.6618 3.16992C65.4781 2.57332 65.1826 2.02415 64.7936 1.55681C64.3943 1.08663 63.9061 0.714958 63.3622 0.467055C62.7299 0.186591 62.0511 0.0499217 61.3679 0.0655547H58.0265V10.2462H61.3666H61.3671ZM64.2433 6.60408C64.1212 7.03253 63.9206 7.42997 63.6534 7.77266C63.3885 8.10587 63.0579 8.37049 62.6859 8.54698C62.2696 8.74036 61.8201 8.83569 61.3671 8.82662H59.5109V1.48509H61.3666C61.8124 1.47667 62.2549 1.56955 62.6655 1.75774C63.0342 1.93069 63.3641 2.18741 63.633 2.51048C63.9058 2.84583 64.111 3.23891 64.2357 3.66472C64.3766 4.142 64.446 4.64062 64.4411 5.14163C64.4454 5.63729 64.3784 6.13065 64.2427 6.60408H64.2433ZM70.3268 10.2462V0.0655547H68.8418V10.2462H70.3262H70.3268ZM72.8051 10.2462H74.3818L75.3626 7.4788H78.9943L79.9883 10.2462H81.5524L77.8412 0.0655547H76.5423L72.8051 10.2462ZM75.6283 6.28864L77.1923 1.91528L78.7032 6.28864H75.6278H75.6283ZM16.1821 0H22.7566V1.4225H16.1821V0ZM16.1821 4.38604H21.9895V5.80855H16.1821V4.38604ZM16.1821 8.77209H22.7566V10.1946H16.1821V8.77209ZM48.7259 0H55.3004V1.4225H48.7259V0ZM48.7259 4.38604H54.5334V5.80855H48.7259V4.38604ZM48.7259 8.77209H55.3004V10.1946H48.7259V8.77209Z" fill="white" stroke="white" stroke-width="2" mask="url(#path-1-inside-1_2_1235)"/>
</g>
<rect x="86.6582" y="8.19727" width="2.34211" height="2.34211" fill="#FF0000"/>
</svg>
