<svg width="29" height="31" viewBox="0 0 29 31" fill="none" xmlns="http://www.w3.org/2000/svg">
<path d="M9 0.5H29" stroke="black"/>
<path d="M9 29.5H29" stroke="black"/>
<path d="M19.3536 0.396447C19.1583 0.201184 18.8417 0.201184 18.6464 0.396447L15.4645 3.57843C15.2692 3.77369 15.2692 4.09027 15.4645 4.28553C15.6597 4.4808 15.9763 4.4808 16.1716 4.28553L19 1.45711L21.8284 4.28553C22.0237 4.4808 22.3403 4.4808 22.5355 4.28553C22.7308 4.09027 22.7308 3.77369 22.5355 3.57843L19.3536 0.396447ZM18.6464 30.1036C18.8417 30.2988 19.1583 30.2988 19.3536 30.1036L22.5355 26.9216C22.7308 26.7263 22.7308 26.4097 22.5355 26.2145C22.3403 26.0192 22.0237 26.0192 21.8284 26.2145L19 29.0429L16.1716 26.2145C15.9763 26.0192 15.6597 26.0192 15.4645 26.2145C15.2692 26.4097 15.2692 26.7263 15.4645 26.9216L18.6464 30.1036ZM18.5 0.75L18.5 29.75L19.5 29.75L19.5 0.75L18.5 0.75Z" fill="black"/>
<rect x="0.5" y="0.5" width="9.51948" height="29" stroke="black"/>
<path d="M0.195312 1.56055L10.3252 5.65145" stroke="black"/>
<path d="M0.195312 5.45312L10.3252 9.54403" stroke="black"/>
<path d="M0.195312 9.35352L10.3252 13.4444" stroke="black"/>
<path d="M0.195312 13.2461L10.3252 17.337" stroke="black"/>
<path d="M0.195312 17.1328L10.3252 21.2237" stroke="black"/>
<path d="M0.195312 21.0391L10.3252 25.13" stroke="black"/>
<path d="M0.195312 24.9375L10.3252 29.0284" stroke="black"/>
</svg>
