<svg width="37" height="18" viewBox="0 0 37 18" fill="none" xmlns="http://www.w3.org/2000/svg">
<path d="M36.5 16.5031C36.2654 16.3976 35.977 16.2709 35.64 16.1284C34.6371 15.7045 33.2017 15.1401 31.4672 14.5758C28.003 13.4487 23.3224 12.3145 18.5 12.3145C13.6776 12.3145 8.99702 13.4487 5.53281 14.5757C3.79826 15.1401 2.36291 15.7045 1.36002 16.1284C1.02296 16.2709 0.734603 16.3976 0.499999 16.5031L0.5 4.61237C11.2139 -1.10089 25.2572 -0.64155 36.5 4.6304L36.5 16.5031Z" stroke="black" stroke-linejoin="round"/>
<path d="M34.5 3.31445L30.0327 13.808" stroke="black"/>
<path d="M36.5 9.81445L34.0004 15.808" stroke="black"/>
<path d="M30 1.81445L25.5 13.3145" stroke="black"/>
<path d="M25.4668 1.31445L21 12.3145" stroke="black"/>
<path d="M21 0.314453L16 12.3145" stroke="black"/>
<path d="M16 0.314453L11 13.3145" stroke="black"/>
<path d="M11.0527 1.31445L5.5 14.8145" stroke="black"/>
<path d="M5.5 2.31445L0.5 15.3145" stroke="black"/>
</svg>
