<svg width="37" height="24" viewBox="0 0 37 24" fill="none" xmlns="http://www.w3.org/2000/svg">
<path d="M36.5 12.0339C36.3346 11.9178 36.145 11.788 35.932 11.6472C35.0406 11.0577 33.7388 10.2742 32.0894 9.49117C28.7922 7.9259 24.0934 6.35714 18.5 6.35714C12.9066 6.35714 8.20777 7.9259 4.91057 9.49117C3.26119 10.2742 1.95945 11.0578 1.06797 11.6472C0.855033 11.788 0.665428 11.9178 0.499999 12.0339L0.5 6.168C11.2074 -1.70323 25.2523 -1.07488 36.5 6.18748L36.5 12.0339Z" stroke="black" stroke-linejoin="round"/>
<path d="M36.5 11.6833L36.5 17.5208C36.3346 17.4047 36.145 17.2749 35.932 17.1341C35.0406 16.5446 33.7388 15.761 32.0894 14.978C28.7922 13.4128 24.0934 11.844 18.5 11.844C12.9066 11.844 8.20777 13.4128 4.91057 14.978C3.26119 15.761 1.95945 16.5446 1.06797 17.1341C0.855034 17.2749 0.665428 17.4047 0.5 17.5208L0.5 11.6771C11.7057 4.5769 24.7973 4.57119 36.5 11.6833Z" stroke="black" stroke-linejoin="round"/>
<path d="M36.5 23.0046C36.3346 22.8884 36.145 22.7587 35.932 22.6179C35.0406 22.0284 33.7388 21.2448 32.0894 20.4618C28.7922 18.8966 24.0934 17.3278 18.5 17.3278C12.9066 17.3278 8.20777 18.8966 4.91057 20.4618C3.26119 21.2448 1.95945 22.0284 1.06797 22.6179C0.855034 22.7587 0.665428 22.8884 0.5 23.0046L0.5 17.1674C12.2026 10.071 25.2943 10.0773 36.5 17.1612L36.5 23.0046Z" stroke="black" stroke-linejoin="round"/>
</svg>
