<svg width="53" height="38" viewBox="0 0 53 38" fill="none" xmlns="http://www.w3.org/2000/svg">
<path d="M26.5028 0.149414L40.1838 6.4443L26.5028 12.781L12.8218 6.4443L26.5028 0.149414Z" fill="white"/>
<path d="M20.7402 31.4016V24.2764L26.172 27.8394L20.7402 31.4016Z" fill="white"/>
<path d="M20.333 21.8466C20.0554 21.6641 19.6996 21.6487 19.4075 21.8063C19.1149 21.9642 18.9325 22.2698 18.9329 22.6019V26.7315C16.4655 26.5076 14.0127 26.1388 11.5889 25.6267V7.85498L25.5994 14.3532V25.3001L20.333 21.8466Z" fill="white"/>
<path d="M0 19.0449C0 17.6259 1.49132 16.4113 2.73742 15.6422C4.44545 14.5892 6.84375 13.6482 9.78141 12.8984V25.2008C3.34157 23.5523 0 21.1149 0 19.0448V19.0449Z" fill="white"/>
<path d="M11.5885 27.4648C14.0136 27.9655 16.4656 28.3272 18.9325 28.5487V33.0763C18.9321 33.4088 19.1145 33.7144 19.4071 33.8719C19.6993 34.0299 20.055 34.0145 20.3326 33.8321L25.5986 30.378V37.8508L11.588 31.3952L11.5885 27.4648Z" fill="white"/>
<path d="M41.4159 31.3945L27.4053 37.8501V29.1921L28.3158 28.5951C28.5705 28.4277 28.7241 28.1438 28.7241 27.8389C28.7241 27.5345 28.5705 27.2502 28.3158 27.0832L27.4053 26.4862V14.3537L41.4159 7.85547V25.6181C38.5624 26.2226 35.6706 26.6324 32.7614 26.8441C32.2757 26.8816 31.9074 27.2969 31.9283 27.7834C31.9484 28.2698 32.3508 28.6528 32.8376 28.6493C32.8609 28.6493 32.8759 28.6485 32.9 28.6465C35.7614 28.4321 38.6054 28.0349 41.4163 27.4572L41.4159 31.3945Z" fill="white"/>
<path d="M47.5615 23.7936C46.1476 24.3535 44.6985 24.821 43.2242 25.1922V12.8696C49.3252 14.4131 53 16.7438 53 19.0465C53 20.6546 51.0211 22.3852 47.5615 23.7936Z" fill="white"/>
</svg>
