<svg width="35" height="36" viewBox="0 0 35 36" fill="none" xmlns="http://www.w3.org/2000/svg">
<path d="M18.0331 18.4188C18.0331 19.1811 17.415 19.7993 16.6526 19.7993C15.89 19.7993 15.2719 19.1812 15.2719 18.4188C15.2719 17.6562 15.89 17.0381 16.6526 17.0381C17.4149 17.0381 18.0331 17.6562 18.0331 18.4188Z" fill="white"/>
<path d="M17.28 35.2802C26.8196 35.2802 34.56 27.5398 34.56 18.0002C34.56 8.46065 26.8196 0.720215 17.28 0.720215C7.74044 0.720215 0 8.46065 0 18.0002C0 27.5398 7.74044 35.2802 17.28 35.2802ZM15.2717 14.8622V7.8332H17.6985V14.7367C19.3302 15.1969 20.5018 16.6615 20.5018 18.4187C20.5018 19.0462 20.3345 19.6319 20.0832 20.176L24.4765 23.7325L22.9285 25.6153L18.2843 21.8498C17.7823 22.1008 17.2383 22.2263 16.6525 22.2263C14.5605 22.2263 12.845 20.5108 12.845 18.4188C12.845 16.8288 13.849 15.448 15.2717 14.8622L15.2717 14.8622Z" fill="white"/>
</svg>
