<svg width="16" height="22" viewBox="0 0 16 22" fill="none" xmlns="http://www.w3.org/2000/svg">
<g opacity="0.31">
<path d="M3.20225 16C4.81225 18.56 6.54225 20.8 7.06225 21.46C7.17349 21.6033 7.31602 21.7193 7.47893 21.799C7.64185 21.8788 7.82085 21.9203 8.00225 21.9203C8.18365 21.9203 8.36265 21.8788 8.52557 21.799C8.68849 21.7193 8.83102 21.6033 8.94225 21.46C9.46225 20.8 11.1923 18.56 12.8023 16C13.6243 14.7209 14.3529 13.3841 14.9823 12C15.5659 10.8376 15.9061 9.56841 15.9823 8.27C16.017 6.11276 15.1939 4.02996 13.6939 2.47926C12.1938 0.928563 10.1395 0.036827 7.98225 0C6.91065 0.0207707 5.8537 0.252966 4.87206 0.683259C3.89043 1.11355 3.00343 1.73347 2.26199 2.50743C1.52054 3.2814 0.939246 4.19417 0.55146 5.19336C0.163675 6.19255 -0.0229651 7.25849 0.00225372 8.33C0.0783822 9.62841 0.418657 10.8976 1.00225 12.06C1.64066 13.4241 2.37588 14.7408 3.20225 16ZM8.00225 2C9.62905 2.03673 11.1747 2.71772 12.2998 3.89336C13.4248 5.06901 14.0371 6.64316 14.0023 8.27C13.9156 9.28566 13.6302 10.2744 13.1623 11.18C12.5719 12.5011 11.8868 13.7778 11.1123 15C10.0023 16.76 8.76225 18.42 8.00225 19.43C7.24225 18.43 6.00225 16.76 4.89225 14.95C4.1223 13.7632 3.43726 12.5235 2.84225 11.24C2.37432 10.3344 2.08891 9.34566 2.00225 8.33C1.96739 6.70316 2.57972 5.12901 3.70475 3.95336C4.82977 2.77772 6.37546 2.09673 8.00225 2.06V2Z" fill="black"/>
<path d="M8.00226 10.0601C9.10683 10.0601 10.0023 9.16463 10.0023 8.06006C10.0023 6.95549 9.10683 6.06006 8.00226 6.06006C6.89769 6.06006 6.00226 6.95549 6.00226 8.06006C6.00226 9.16463 6.89769 10.0601 8.00226 10.0601Z" fill="black"/>
</g>
</svg>
