<?xml version="1.0" encoding="UTF-8" standalone="no"?>
<svg
   xmlns:dc="http://purl.org/dc/elements/1.1/"
   xmlns:cc="http://creativecommons.org/ns#"
   xmlns:rdf="http://www.w3.org/1999/02/22-rdf-syntax-ns#"
   xmlns:svg="http://www.w3.org/2000/svg"
   xmlns="http://www.w3.org/2000/svg"
   xmlns:sodipodi="http://sodipodi.sourceforge.net/DTD/sodipodi-0.dtd"
   xmlns:inkscape="http://www.inkscape.org/namespaces/inkscape"
   width="22"
   height="22"
   viewBox="0 0 22 22"
   fill="none"
   version="1.1"
   id="svg4"
   sodipodi:docname="phone-2.svg"
   inkscape:version="0.92.3 (2405546, 2018-03-11)">
  <metadata
     id="metadata10">
    <rdf:RDF>
      <cc:Work
         rdf:about="">
        <dc:format>image/svg+xml</dc:format>
        <dc:type
           rdf:resource="http://purl.org/dc/dcmitype/StillImage" />
        <dc:title></dc:title>
      </cc:Work>
    </rdf:RDF>
  </metadata>
  <defs
     id="defs8" />
  <sodipodi:namedview
     pagecolor="#ffffff"
     bordercolor="#666666"
     borderopacity="1"
     objecttolerance="10"
     gridtolerance="10"
     guidetolerance="10"
     inkscape:pageopacity="0"
     inkscape:pageshadow="2"
     inkscape:window-width="1366"
     inkscape:window-height="705"
     id="namedview6"
     showgrid="false"
     inkscape:zoom="10.727273"
     inkscape:cx="11"
     inkscape:cy="11"
     inkscape:window-x="-8"
     inkscape:window-y="-8"
     inkscape:window-maximized="1"
     inkscape:current-layer="svg4" />
  <path
     id="path2"
     style="color:#000000;font-style:normal;font-variant:normal;font-weight:normal;font-stretch:normal;font-size:medium;line-height:normal;font-family:sans-serif;font-variant-ligatures:normal;font-variant-position:normal;font-variant-caps:normal;font-variant-numeric:normal;font-variant-alternates:normal;font-feature-settings:normal;text-indent:0;text-align:start;text-decoration:none;text-decoration-line:none;text-decoration-style:solid;text-decoration-color:#000000;letter-spacing:normal;word-spacing:normal;text-transform:none;writing-mode:lr-tb;direction:ltr;text-orientation:mixed;dominant-baseline:auto;baseline-shift:baseline;text-anchor:start;white-space:normal;shape-padding:0;clip-rule:nonzero;display:inline;overflow:visible;visibility:visible;opacity:0.31000001;isolation:auto;mix-blend-mode:normal;color-interpolation:sRGB;color-interpolation-filters:linearRGB;solid-color:#000000;solid-opacity:1;vector-effect:none;fill:#000000;fill-opacity:1;fill-rule:nonzero;stroke:none;stroke-width:2;stroke-linecap:butt;stroke-linejoin:miter;stroke-miterlimit:4;stroke-dasharray:none;stroke-dashoffset:0;stroke-opacity:1;color-rendering:auto;image-rendering:auto;shape-rendering:auto;text-rendering:auto;enable-background:accumulate"
     d="M 5.9550781,0.01367188 C 5.3822043,-0.06249403 5.0229313,0.12906687 4.6621094,0.31835938 4.3012874,0.50765188 3.9505681,0.74957142 3.5917969,1.0253906 2.8742545,1.577029 2.1358154,2.26053 1.53125,2.8496094 0.47231648,3.8813932 0.12052729,5.4847273 0.74804688,6.859375 1.642594,8.8189476 3.4667325,12.15012 6.6523438,15.291016 c 3.1351009,3.09108 6.5157272,4.940111 8.5546872,5.880859 1.48064,0.68317 3.21715,0.240449 4.246094,-0.984375 0.527464,-0.627923 1.119997,-1.366176 1.601563,-2.068359 0.240782,-0.351092 0.454617,-0.691568 0.623046,-1.027344 C 21.846163,16.75602 22,16.449602 22,15.966797 c 0,-0.767349 -0.351694,-1.319523 -0.759766,-1.875 -0.408071,-0.555477 -0.928195,-1.089871 -1.484375,-1.566406 -0.55618,-0.476536 -1.142907,-0.891941 -1.722656,-1.189453 -0.579749,-0.297513 -1.136992,-0.60288 -1.949219,-0.330079 -0.79066,0.265558 -1.440664,0.771075 -1.974609,1.208985 -0.160963,0.132012 -0.151064,0.135731 -0.279297,0.25 -0.358161,-0.198453 -1.119423,-0.559019 -2.470703,-1.902344 h -0.002 C 10.007593,9.2207028 9.6225841,8.4676076 9.40625,8.1015625 9.51701,7.9763804 9.5196782,7.9873912 9.6464844,7.8320312 10.082732,7.2975511 10.585796,6.64718 10.847656,5.8554688 h 0.002 C 11.096195,5.1098292 10.850264,4.54773 10.582031,3.984375 10.313798,3.42102 9.9275512,2.8545584 9.4667969,2.3144531 8.5452882,1.2342426 7.3956143,0.20520566 5.9550781,0.01367188 Z M 5.6914062,1.9960938 C 6.14941,2.05699 7.2149037,2.7570817 7.9453125,3.6132812 8.3105169,4.041381 8.6114019,4.4952312 8.7773438,4.84375 8.9432856,5.1922688 8.8803285,5.434877 8.9492188,5.2265625 8.8556393,5.5094912 8.4670437,6.1138414 8.0976562,6.5664062 7.7282688,7.0189711 7.4023438,7.3457031 7.4023438,7.3457031 L 6.8769531,7.8730469 7.2304688,8.5273438 c 0,0 0.8909708,1.6362212 2.71875,3.4531252 1.8341102,1.823313 3.4921872,2.664062 3.4921872,2.664062 l 0.646485,0.326172 0.511718,-0.511719 c 0,0 0.324964,-0.32625 0.777344,-0.697265 0.45238,-0.371015 1.058264,-0.764786 1.345703,-0.861328 -0.273176,0.09175 0.01328,0.01819 0.396485,0.214843 0.383204,0.196651 0.877705,0.537074 1.335937,0.929688 0.458233,0.392614 0.886518,0.842033 1.171875,1.230469 C 19.91231,15.663826 20,16.015696 20,15.966797 c 0,-0.139705 -0.0053,0.02103 -0.109375,0.228515 -0.104077,0.207487 -0.275883,0.488961 -0.484375,0.792969 -0.416985,0.608017 -0.980639,1.314386 -1.484375,1.914063 -0.487056,0.579776 -1.217593,0.757355 -1.876953,0.453125 C 14.150082,18.481216 10.960407,16.732107 8.0546875,13.867188 5.1021388,10.956083 3.3913522,7.8301712 2.5683594,6.0273438 2.295379,5.4293514 2.4335479,4.7647193 2.9277344,4.2832031 3.5013789,3.7242525 4.2042367,3.0774525 4.8105469,2.6113281 5.1137019,2.378266 5.395836,2.1906946 5.5917969,2.0878906 5.7877578,1.9850867 5.9070101,2.0247592 5.6914062,1.9960938 Z" />
</svg>
