<svg width="21" height="13" viewBox="0 0 21 13" fill="none" xmlns="http://www.w3.org/2000/svg">
<path d="M20.6727 11.1153C20.6727 11.0322 20.5897 11.0322 20.5897 10.9492C20.2576 10.285 19.5104 9.4548 18.5141 8.54155C18.016 8.12644 17.7669 7.79434 17.6009 7.62829C17.3518 7.2962 17.3518 7.04714 17.4348 6.71505C17.5179 6.46598 17.8499 6.05086 18.4311 5.30365C18.7632 4.88853 18.9292 4.63947 19.1783 4.3904C20.4236 2.72995 21.0048 1.65064 20.8387 1.1525L20.7557 1.06949C20.6727 0.986464 20.5897 0.903444 20.4236 0.903444C20.2576 0.820421 20.0085 0.820421 19.7595 0.903444H16.6046C16.5216 0.903444 16.5216 0.903444 16.3555 0.903444C16.2725 0.903444 16.1895 0.903444 16.1895 0.903444H16.1065H16.0234L15.9404 0.986459C15.8574 1.06948 15.8574 1.06948 15.8574 1.1525C15.5253 2.06575 15.1102 2.81296 14.6951 3.64319C14.446 4.05831 14.1969 4.47343 13.9479 4.80552C13.6988 5.13761 13.5327 5.38667 13.3667 5.55272C13.2006 5.71877 13.0346 5.80179 12.9516 5.96783C12.8685 6.05086 12.7025 6.13389 12.7025 6.05086C12.6195 6.05086 12.5365 6.05086 12.5365 5.96783C12.4534 5.88481 12.3704 5.80179 12.2874 5.71876C12.2044 5.63574 12.2044 5.46969 12.1213 5.30365C12.1213 5.1376 12.1213 4.97156 12.1213 4.88853C12.1213 4.80551 12.1213 4.55645 12.1213 4.3904C12.1213 4.14134 12.1213 3.97528 12.1213 3.89226C12.1213 3.64319 12.1213 3.31111 12.1213 2.97902C12.1213 2.64693 12.1213 2.39785 12.1213 2.2318C12.1213 2.06576 12.1213 1.81669 12.1213 1.65065C12.1213 1.40158 12.1213 1.23553 12.1213 1.1525C12.1213 1.06948 12.0383 0.903439 12.0383 0.820416C11.9553 0.737393 11.8723 0.654367 11.7893 0.571344C11.7062 0.488322 11.5402 0.488324 11.4572 0.405301C11.0421 0.322278 10.5439 0.239258 9.96276 0.239258C8.6344 0.239258 7.72114 0.322283 7.38905 0.488329C7.223 0.571352 7.05696 0.65437 6.97393 0.820416C6.80789 0.986462 6.80788 1.06949 6.89091 1.06949C7.30602 1.15251 7.63812 1.31855 7.80416 1.56762L7.88719 1.73367C7.97021 1.8167 7.9702 1.98273 8.05322 2.2318C8.13624 2.48087 8.13625 2.72994 8.13625 3.06203C8.13625 3.56017 8.13625 4.05831 8.13625 4.3904C8.13625 4.80552 8.05322 5.05458 8.05322 5.30365C8.05322 5.55272 7.97021 5.71877 7.88719 5.80179C7.80417 5.96784 7.80416 6.05086 7.72113 6.05086C7.72113 6.05086 7.72113 6.13388 7.63811 6.13388C7.55508 6.13388 7.47207 6.21691 7.30602 6.21691C7.223 6.21691 7.05696 6.13389 6.97393 6.05086C6.80789 5.96784 6.64184 5.80179 6.55882 5.63575C6.39277 5.4697 6.22672 5.22063 6.06068 4.88853C5.89463 4.55644 5.64555 4.22436 5.47951 3.72622L5.31348 3.39413C5.23045 3.22809 5.06441 2.89599 4.89836 2.48087C4.73231 2.06576 4.56626 1.73367 4.40022 1.31856C4.31719 1.15251 4.23418 1.06948 4.15116 0.986459H4.06813C4.06813 0.986459 3.9851 0.903444 3.90208 0.903444C3.81905 0.903444 3.73604 0.820416 3.65302 0.820416H0.664186C0.332094 0.820416 0.166051 0.903436 0.083028 0.986459L0 1.06949C0 1.06949 0 1.15251 0 1.23553C0 1.31855 5.06608e-06 1.40157 0.083028 1.56762C0.498143 2.56389 0.996278 3.56017 1.49442 4.55645C1.99255 5.4697 2.4907 6.29993 2.82279 6.88109C3.2379 7.46225 3.56999 8.04341 3.9851 8.54155C4.40022 9.03969 4.64928 9.37178 4.7323 9.53782C4.89835 9.70387 4.98137 9.78689 5.06439 9.86991L5.31348 10.119C5.47952 10.285 5.72858 10.5341 6.06068 10.7832C6.39277 11.0322 6.80788 11.2813 7.22299 11.5304C7.63811 11.7794 8.13625 11.9455 8.63439 12.1115C9.21555 12.2776 9.71369 12.3606 10.2118 12.2776H11.4572C11.7062 12.2776 11.8723 12.1946 12.0383 12.0285L12.1213 11.9455C12.1213 11.8625 12.2044 11.8625 12.2044 11.7794C12.2044 11.6964 12.2044 11.6134 12.2044 11.4474C12.2044 11.1153 12.2044 10.8662 12.2874 10.6171C12.3704 10.3681 12.3704 10.202 12.4535 10.036C12.5365 9.86992 12.6195 9.78689 12.7025 9.70387C12.7855 9.62084 12.8686 9.53782 12.8686 9.53782H12.9516C13.1176 9.4548 13.3667 9.53782 13.5327 9.70387C13.7818 9.86991 14.0309 10.119 14.1969 10.3681C14.363 10.6171 14.612 10.8662 14.9441 11.1983C15.2762 11.5304 15.5253 11.7794 15.6913 11.8625L15.9404 12.0285C16.1064 12.1115 16.2725 12.1946 16.5216 12.2776C16.7706 12.3606 16.9367 12.3606 17.1027 12.3606L19.9255 12.2776C20.1746 12.2776 20.4236 12.1946 20.5897 12.1115C20.7557 12.0285 20.8387 11.9455 20.8387 11.7794C20.8387 11.6964 20.8387 11.5304 20.8387 11.4474C20.6727 11.2813 20.6727 11.1983 20.6727 11.1153Z" fill="white"/>
</svg>
