<svg width="26" height="26" viewBox="0 0 26 26" fill="none" xmlns="http://www.w3.org/2000/svg">
<path d="M13.1423 1C6.44674 1 1 6.44674 1 13.1423C1 15.4264 1.63467 17.6438 2.83862 19.5693C2.359 21.2496 1.4927 24.428 1.48336 24.4612C1.43852 24.6256 1.48662 24.8012 1.60945 24.9193C1.73227 25.0375 1.90974 25.0795 2.07132 25.03L6.88433 23.5496C8.76965 24.6853 10.9286 25.2845 13.1423 25.2845C19.8378 25.2845 25.2845 19.8378 25.2845 13.1423C25.2845 6.44674 19.8378 1 13.1423 1ZM13.1423 24.3505C11.0318 24.3505 8.97606 23.7607 7.19676 22.6454C7.12157 22.5983 7.03517 22.5745 6.94877 22.5745C6.90254 22.5745 6.85631 22.5815 6.81147 22.595L2.60885 23.8886C2.91754 22.7617 3.47235 20.7461 3.79412 19.6248C3.83148 19.495 3.81047 19.3549 3.73715 19.2414C2.55748 17.4261 1.93402 15.3171 1.93402 13.1423C1.93402 6.96232 6.96232 1.93402 13.1423 1.93402C19.3222 1.93402 24.3505 6.96232 24.3505 13.1423C24.3505 19.3222 19.3222 24.3505 13.1423 24.3505Z" fill="white" stroke="white"/>
<path fill-rule="evenodd" clip-rule="evenodd" d="M10.3097 7.55024C10.0969 7.04478 9.93556 7.02564 9.61309 7.01264C9.5033 7.00632 9.38093 7 9.24528 7C8.82576 7 8.38712 7.12154 8.12256 7.39025C7.80009 7.71657 7 8.47793 7 10.0393C7 11.6007 8.14841 13.1107 8.30318 13.322C8.46451 13.5329 10.5421 16.7835 13.7679 18.1083C16.2905 19.1449 17.039 19.0488 17.6131 18.9273C18.4518 18.7482 19.5035 18.1336 19.7681 17.3916C20.0327 16.6492 20.0326 16.0157 19.9551 15.8813C19.8777 15.747 19.6646 15.6704 19.3422 15.5102C19.0197 15.3502 17.4518 14.5823 17.155 14.48C16.8646 14.3712 16.5873 14.4097 16.368 14.7169C16.0583 15.1456 15.7551 15.5808 15.5099 15.843C15.3163 16.0478 15 16.0735 14.7356 15.9646C14.3808 15.8176 13.3873 15.4717 12.1614 14.3904C11.2129 13.5523 10.5678 12.5094 10.3808 12.1959C10.1936 11.8761 10.3614 11.6902 10.5097 11.5176C10.671 11.3191 10.8258 11.1784 10.9871 10.9928C11.1484 10.8073 11.2387 10.7113 11.342 10.4936C11.4518 10.2825 11.3742 10.0649 11.2968 9.90493C11.2194 9.74493 10.5743 8.18356 10.3097 7.55024Z" fill="white"/>
</svg>
